<svg width="1126" height="100" viewBox="0 0 1126 100" fill="none" xmlns="http://www.w3.org/2000/svg">
<rect width="1126" height="100" fill="white"/>
<path d="M13.2031 64.6133C13.2031 64.0404 13.3333 63.6042 13.5938 63.3047C13.8542 62.9922 14.2383 62.8359 14.7461 62.8359C15.306 62.8359 15.7161 62.9922 15.9766 63.3047C16.237 63.6042 16.3672 64.0404 16.3672 64.6133C16.3672 65.1862 16.237 65.6289 15.9766 65.9414C15.7161 66.2539 15.306 66.4102 14.7461 66.4102C14.2383 66.4102 13.8542 66.2539 13.5938 65.9414C13.3333 65.6289 13.2031 65.1862 13.2031 64.6133ZM44.9609 44.3594C47.0052 44.3594 48.6198 44.9518 49.8047 46.1367C50.9896 47.3216 51.582 49.1901 51.582 51.7422V66H49.6484V51.8203C49.6484 49.8542 49.1992 48.4089 48.3008 47.4844C47.4023 46.5599 46.2174 46.0977 44.7461 46.0977C42.7279 46.0977 41.1458 46.6901 40 47.875C38.8672 49.0469 38.3008 50.8958 38.3008 53.4219V66H36.3477V51.8203C36.3477 50.5052 36.1393 49.431 35.7227 48.5977C35.319 47.7513 34.7526 47.1263 34.0234 46.7227C33.2943 46.306 32.4349 46.0977 31.4453 46.0977C30.1302 46.0977 28.9909 46.3711 28.0273 46.918C27.0638 47.4518 26.3216 48.2852 25.8008 49.418C25.2799 50.5378 25.0195 51.9635 25.0195 53.6953V66H23.0469V44.7695H24.6484L24.9414 48.2461H25.0586C25.4102 47.556 25.8789 46.918 26.4648 46.332C27.0508 45.7461 27.7734 45.2708 28.6328 44.9062C29.5052 44.5417 30.5273 44.3594 31.6992 44.3594C33.2227 44.3594 34.5117 44.7044 35.5664 45.3945C36.6341 46.0716 37.3763 47.0807 37.793 48.4219H37.9297C38.5026 47.1458 39.388 46.1497 40.5859 45.4336C41.7969 44.7174 43.2552 44.3594 44.9609 44.3594ZM54.9023 44.7695H56.9922L62.1484 58.2461C62.4609 59.0404 62.7344 59.776 62.9688 60.4531C63.2161 61.1172 63.431 61.7292 63.6133 62.2891C63.7956 62.8359 63.9453 63.3372 64.0625 63.793H64.1797C64.375 63.194 64.6354 62.4258 64.9609 61.4883C65.2865 60.5378 65.6576 59.4831 66.0742 58.3242L71.1719 44.7695H73.2812L63.5938 69.9844C63.125 71.2083 62.6107 72.2435 62.0508 73.0898C61.4909 73.9492 60.8333 74.5938 60.0781 75.0234C59.3229 75.4661 58.4115 75.6875 57.3438 75.6875C56.862 75.6875 56.4258 75.6484 56.0352 75.5703C55.6445 75.5052 55.2669 75.4141 54.9023 75.2969V73.5977C55.2409 73.7018 55.5859 73.7865 55.9375 73.8516C56.3021 73.9297 56.6992 73.9688 57.1289 73.9688C57.8711 73.9688 58.5091 73.8125 59.043 73.5C59.5898 73.2005 60.0781 72.7318 60.5078 72.0938C60.9375 71.4557 61.3411 70.6419 61.7188 69.6523L63.1641 65.8828L54.9023 44.7695ZM89.7461 71.2148H73.1641V69.6133H89.7461V71.2148ZM95.1562 35.6094V44.2422C95.1562 44.9844 95.1432 45.7982 95.1172 46.6836C95.0911 47.569 95.0651 48.3047 95.0391 48.8906H95.1562C95.6641 47.5755 96.5495 46.4883 97.8125 45.6289C99.0755 44.7695 100.651 44.3398 102.539 44.3398C105.299 44.3398 107.428 45.2708 108.926 47.1328C110.436 48.9948 111.191 51.7227 111.191 55.3164C111.191 57.5169 110.853 59.4505 110.176 61.1172C109.499 62.7708 108.49 64.0664 107.148 65.0039C105.82 65.9284 104.154 66.3906 102.148 66.3906C100.339 66.3906 98.8607 66.013 97.7148 65.2578C96.569 64.4896 95.7357 63.5326 95.2148 62.3867H95.0586L94.6875 66H93.1836V35.6094H95.1562ZM102.324 46.0586C100.645 46.0586 99.2773 46.4232 98.2227 47.1523C97.168 47.8685 96.3932 48.9167 95.8984 50.2969C95.4036 51.6771 95.1562 53.3633 95.1562 55.3555V55.668C95.1562 58.5977 95.6901 60.8307 96.7578 62.3672C97.8255 63.9036 99.5573 64.6719 101.953 64.6719C104.323 64.6719 106.113 63.8646 107.324 62.25C108.548 60.6224 109.16 58.3112 109.16 55.3164C109.16 52.2565 108.594 49.9518 107.461 48.4023C106.328 46.8398 104.616 46.0586 102.324 46.0586ZM119.043 66H117.051V35.6094H119.043V66ZM143.711 55.3555C143.711 56.9961 143.509 58.4935 143.105 59.8477C142.702 61.1888 142.103 62.3477 141.309 63.3242C140.514 64.3008 139.525 65.056 138.34 65.5898C137.168 66.1237 135.801 66.3906 134.238 66.3906C132.754 66.3906 131.432 66.1302 130.273 65.6094C129.115 65.0755 128.132 64.3203 127.324 63.3438C126.53 62.3672 125.924 61.2083 125.508 59.8672C125.091 58.513 124.883 57.0091 124.883 55.3555C124.883 53.0768 125.26 51.1172 126.016 49.4766C126.784 47.8229 127.878 46.5599 129.297 45.6875C130.729 44.8021 132.441 44.3594 134.434 44.3594C136.491 44.3594 138.203 44.8281 139.57 45.7656C140.951 46.6901 141.986 47.9792 142.676 49.6328C143.366 51.2865 143.711 53.194 143.711 55.3555ZM126.914 55.3555C126.914 57.2174 127.181 58.8451 127.715 60.2383C128.249 61.6315 129.056 62.7188 130.137 63.5C131.23 64.2812 132.611 64.6719 134.277 64.6719C135.983 64.6719 137.383 64.2812 138.477 63.5C139.57 62.7188 140.378 61.625 140.898 60.2188C141.419 58.8125 141.68 57.1914 141.68 55.3555C141.68 53.5716 141.432 51.9831 140.938 50.5898C140.443 49.1966 139.661 48.1029 138.594 47.3086C137.526 46.5013 136.133 46.0977 134.414 46.0977C131.953 46.0977 130.085 46.918 128.809 48.5586C127.546 50.1992 126.914 52.4648 126.914 55.3555ZM155.195 75.6094C152.526 75.6094 150.449 75.0951 148.965 74.0664C147.493 73.0378 146.758 71.599 146.758 69.75C146.758 68.3177 147.207 67.0807 148.105 66.0391C149.004 65.0104 150.221 64.3919 151.758 64.1836C151.146 63.8971 150.645 63.5065 150.254 63.0117C149.876 62.5169 149.688 61.944 149.688 61.293C149.688 60.5638 149.915 59.8867 150.371 59.2617C150.827 58.6237 151.51 58.0378 152.422 57.5039C151.198 57.0612 150.234 56.3125 149.531 55.2578C148.828 54.1901 148.477 52.9076 148.477 51.4102C148.477 49.9779 148.783 48.7344 149.395 47.6797C150.007 46.625 150.872 45.8112 151.992 45.2383C153.125 44.6523 154.46 44.3594 155.996 44.3594C156.465 44.3594 156.888 44.3724 157.266 44.3984C157.656 44.4245 158.014 44.4701 158.34 44.5352C158.665 44.5872 158.958 44.6589 159.219 44.75H166.074V46.1562L161.699 46.4492C162.272 47.1393 162.702 47.888 162.988 48.6953C163.275 49.4896 163.418 50.3294 163.418 51.2148C163.418 53.3242 162.754 54.9974 161.426 56.2344C160.098 57.4714 158.249 58.0898 155.879 58.0898C155.228 58.0898 154.59 58.0312 153.965 57.9141C153.171 58.3828 152.565 58.8581 152.148 59.3398C151.732 59.8086 151.523 60.3945 151.523 61.0977C151.523 61.5404 151.654 61.9049 151.914 62.1914C152.174 62.4648 152.552 62.6797 153.047 62.8359C153.542 62.9792 154.147 63.0508 154.863 63.0508H158.594C160.898 63.0508 162.663 63.5195 163.887 64.457C165.111 65.3945 165.723 66.7747 165.723 68.5977C165.723 70.8242 164.805 72.5495 162.969 73.7734C161.146 74.9974 158.555 75.6094 155.195 75.6094ZM155.332 73.9492C157.194 73.9492 158.743 73.7474 159.98 73.3438C161.23 72.9401 162.168 72.3411 162.793 71.5469C163.418 70.7656 163.73 69.7956 163.73 68.6367C163.73 67.6862 163.503 66.9505 163.047 66.4297C162.591 65.9089 161.947 65.5508 161.113 65.3555C160.28 65.1471 159.297 65.043 158.164 65.043H154.609C153.477 65.043 152.467 65.1992 151.582 65.5117C150.697 65.8112 150.007 66.293 149.512 66.957C149.03 67.6211 148.789 68.5065 148.789 69.6133C148.789 71.0326 149.342 72.1068 150.449 72.8359C151.569 73.5781 153.197 73.9492 155.332 73.9492ZM155.957 56.5078C157.715 56.5078 159.062 56.0651 160 55.1797C160.938 54.2943 161.406 53.0117 161.406 51.332C161.406 49.5352 160.924 48.1875 159.961 47.2891C158.997 46.3906 157.65 45.9414 155.918 45.9414C154.238 45.9414 152.917 46.4232 151.953 47.3867C151.003 48.3372 150.527 49.6784 150.527 51.4102C150.527 53.0247 150.983 54.2812 151.895 55.1797C152.806 56.0651 154.16 56.5078 155.957 56.5078Z" fill="black"/>
<g clip-path="url(#clip0_1_179)">
<path d="M1099 59V55.5C1099 54.5 1099.1 54.1 1098.5 53.5C1101.3 53.2 1104 52.1 1104 47.5C1104 46.305 1103.53 45.1573 1102.7 44.3C1103.09 43.262 1103.05 42.1116 1102.6 41.1C1102.6 41.1 1101.5 40.8 1099.1 42.4C1097.07 41.8706 1094.93 41.8706 1092.9 42.4C1090.5 40.8 1089.4 41.1 1089.4 41.1C1088.95 42.1116 1088.91 43.262 1089.3 44.3C1088.47 45.1573 1088 46.305 1088 47.5C1088 52.1 1090.7 53.2 1093.5 53.5C1092.9 54.1 1092.9 54.7 1093 55.5V59M1093 57C1088.7 58.4 1088.7 54.5 1087 54L1093 57Z" stroke="#4B4B4B" stroke-width="1.25" stroke-linecap="round" stroke-linejoin="round"/>
</g>
<defs>
<clipPath id="clip0_1_179">
<rect width="24" height="24" fill="white" transform="translate(1084 38)"/>
</clipPath>
</defs>
</svg>
